<?xml version="1.0" standalone="no"?>
<!DOCTYPE svg PUBLIC "-//W3C//DTD SVG 20010904//EN"
 "http://www.w3.org/TR/2001/REC-SVG-20010904/DTD/svg10.dtd">
<svg version="1.0" xmlns="http://www.w3.org/2000/svg"
 width="967.000000pt" height="967.000000pt" viewBox="0 0 967.000000 967.000000"
 preserveAspectRatio="xMidYMid meet">
<metadata>
Created by potrace 1.14, written by Peter Selinger 2001-2017
</metadata>
<g transform="translate(0.000000,967.000000) scale(0.100000,-0.100000)"
fill="#000000" stroke="none">
<path d="M4685 9509 c-110 -88 -207 -165 -215 -172 -8 -7 -123 -97 -255 -202
-265 -210 -247 -195 -330 -262 -33 -26 -64 -51 -70 -56 -5 -4 -107 -84 -225
-178 -118 -94 -224 -178 -235 -187 -11 -9 -72 -57 -135 -107 -63 -49 -124 -97
-135 -106 -11 -10 -48 -39 -81 -66 -34 -26 -79 -61 -99 -78 -21 -16 -118 -93
-215 -170 -98 -77 -262 -207 -366 -290 -104 -82 -299 -237 -434 -344 -135
-107 -274 -217 -310 -246 -36 -29 -166 -132 -290 -230 -124 -98 -286 -227
-360 -286 -74 -58 -188 -149 -253 -201 l-119 -94 2 -154 c1 -85 3 -243 5 -350
1 -107 3 -198 4 -202 0 -4 67 32 149 79 81 47 167 97 192 111 53 29 108 62
135 80 11 6 27 15 35 19 8 4 59 33 113 65 55 32 101 58 103 58 2 0 28 16 58
35 30 19 57 35 60 35 2 0 50 27 106 60 56 33 104 60 106 60 2 0 23 11 45 26
22 14 55 33 72 43 18 10 178 103 357 206 179 103 474 274 655 378 182 105 398
230 480 277 83 48 211 122 285 165 74 43 207 119 295 170 88 51 349 201 580
335 231 134 434 251 452 261 31 18 32 18 35 -3 2 -14 32 -38 93 -75 50 -30 99
-59 110 -64 11 -5 27 -13 35 -19 15 -10 148 -87 475 -275 94 -54 228 -132 299
-173 72 -41 144 -82 160 -92 17 -10 114 -66 216 -125 102 -59 204 -118 227
-132 24 -13 131 -75 239 -138 108 -63 198 -115 199 -115 2 0 49 -27 104 -60
56 -33 106 -60 111 -60 6 0 10 -4 10 -10 0 -5 4 -10 9 -10 5 0 76 -39 158 -86
81 -48 366 -213 633 -367 509 -294 646 -373 900 -520 256 -148 273 -158 278
-152 3 3 6 172 6 377 l1 373 -300 239 c-295 235 -395 315 -425 340 -9 7 -85
67 -170 135 -85 68 -164 130 -175 139 -11 10 -52 42 -90 72 -39 30 -72 57 -75
60 -3 3 -48 39 -100 80 -52 41 -104 83 -115 92 -19 16 -552 441 -631 503 -21
17 -54 44 -74 60 -20 17 -54 44 -76 61 -222 177 -1309 1044 -1339 1069 -22 18
-112 90 -200 160 -88 69 -169 134 -180 143 -11 10 -38 31 -60 47 -22 16 -42
32 -45 35 -13 13 -119 99 -155 125 -22 16 -42 32 -45 36 -3 4 -95 -65 -205
-152z"/>
<path d="M4760 7229 c-30 -16 -174 -87 -320 -158 -146 -71 -373 -182 -505
-246 -132 -65 -325 -159 -430 -210 -312 -152 -607 -296 -835 -407 -349 -171
-611 -299 -835 -407 -115 -57 -233 -114 -262 -129 l-52 -27 5 -1335 c9 -2286
10 -2620 15 -2623 2 -1 29 -14 59 -29 30 -15 222 -109 425 -209 204 -99 460
-225 570 -279 110 -54 340 -166 510 -250 171 -84 416 -204 545 -268 426 -208
712 -348 950 -465 129 -64 237 -114 239 -111 3 3 5 7144 2 7177 -2 13 -24 6
-81 -24z m-570 -3539 c0 -1369 -2 -2490 -4 -2490 -4 0 -448 175 -491 194 -16
7 -124 50 -240 96 -115 45 -223 88 -240 95 -16 7 -140 57 -275 110 -135 53
-258 103 -275 110 -16 7 -169 68 -340 135 -170 68 -314 127 -319 131 -13 12
-14 3248 -1 3258 6 4 30 15 55 25 188 72 440 170 465 181 17 7 120 48 230 90
110 43 214 83 230 90 17 7 68 27 115 45 47 18 99 39 115 45 17 7 172 68 345
136 173 67 380 148 460 180 80 32 151 58 158 58 9 1 12 -503 12 -2489z"/>
<path d="M5514 6972 c-26 -48 -54 -95 -62 -104 -8 -10 -12 -18 -8 -18 4 0 -1
-12 -12 -27 -11 -16 -35 -57 -54 -93 -62 -114 -100 -184 -114 -207 -8 -12 -23
-38 -35 -59 -23 -41 -21 2 -34 -754 -3 -190 -8 -437 -10 -550 -4 -219 -13
-681 -20 -1080 -3 -135 -7 -416 -11 -625 -3 -209 -7 -406 -8 -437 -2 -47 0
-58 13 -59 9 -1 30 -2 46 -4 17 -2 83 -6 147 -9 64 -4 147 -8 185 -11 131 -8
365 -21 553 -31 69 -3 128 -8 133 -11 4 -2 7 2 8 9 1 32 11 454 12 555 l2 112
25 -4 c14 -2 52 -6 85 -10 33 -3 67 -8 75 -10 8 -2 40 -6 70 -10 30 -3 66 -7
80 -10 14 -2 47 -7 74 -10 27 -3 52 -7 56 -10 4 -2 5 -57 4 -122 -9 -300 -11
-524 -5 -527 6 -4 128 -12 316 -21 55 -3 132 -7 170 -10 39 -2 127 -7 196 -10
l126 -7 1 69 c0 37 3 201 7 363 6 302 9 399 20 930 3 168 8 382 10 475 2 94 7
317 10 497 l7 326 -31 99 c-16 54 -66 214 -110 356 -43 142 -81 260 -82 261
-2 2 -78 40 -169 84 -91 44 -322 157 -515 252 -192 95 -462 228 -600 295 -137
67 -297 146 -355 175 -163 80 -142 82 -196 -18z m1035 -1597 l236 -83 -2 -198
c-3 -335 -6 -474 -12 -474 -8 0 -300 78 -339 91 -18 6 -42 12 -55 15 -12 2
-42 10 -67 17 l-45 13 1 134 c6 538 8 580 28 574 10 -4 125 -44 255 -89z"/>
<path d="M7933 5833 c-6 -16 -26 -64 -44 -108 -17 -44 -37 -93 -44 -110 -98
-228 -91 -181 -100 -675 -4 -190 -8 -410 -10 -490 -2 -80 -6 -298 -10 -485 -4
-187 -9 -398 -10 -470 -3 -122 -1 -137 30 -245 76 -264 115 -393 119 -397 3
-3 26 -6 53 -8 204 -12 284 -17 323 -20 47 -4 288 -18 328 -19 l24 0 -5 -289
c-3 -159 -8 -292 -12 -295 -3 -3 -146 -7 -318 -8 -172 -1 -708 -5 -1192 -9
-484 -4 -1113 -8 -1398 -10 -285 -2 -520 -5 -523 -7 -4 -5 -10 -219 -19 -748
-6 -347 -14 -727 -20 -1034 l-4 -238 27 7 c15 4 34 8 42 10 8 2 128 29 265 60
138 31 261 59 275 61 14 3 33 7 42 10 18 5 30 8 128 29 51 11 71 15 355 80
160 36 299 67 310 69 11 3 90 20 175 40 152 34 450 101 493 111 12 2 40 9 62
14 22 5 51 12 65 15 14 2 167 37 340 76 311 70 481 109 510 115 37 8 347 77
360 80 8 2 90 20 182 41 91 20 171 40 177 44 6 3 36 114 67 246 49 210 56 254
59 364 6 244 15 638 20 860 3 124 7 312 10 419 3 109 1 209 -4 230 -6 20 -12
47 -15 61 -2 14 -16 72 -30 130 -15 58 -29 117 -31 132 -12 68 -18 73 -101 88
-44 7 -81 14 -84 15 -3 0 -27 5 -55 10 -27 4 -54 9 -60 11 -13 3 -279 53 -322
61 l-33 6 5 176 c2 97 5 231 7 299 1 67 6 122 10 122 13 0 217 -55 423 -115
28 -8 84 -23 125 -34 41 -11 98 -27 125 -35 28 -9 55 -16 62 -16 8 0 12 32 13
103 1 56 3 156 5 222 2 66 6 266 10 445 4 179 8 354 9 389 l1 65 -75 38 c-67
33 -288 141 -695 338 -77 37 -200 97 -274 134 -74 36 -135 66 -135 66 -1 0 -6
-12 -13 -27z"/>
</g>
</svg>
